<?xml version="1.0" encoding="UTF-8"?>
<svg id="Layer_2" data-name="Layer 2" xmlns="http://www.w3.org/2000/svg" viewBox="0 0 1366 768">
  <defs>
    <style>
      .cls-1 {
        opacity: .75;
      }

      .cls-2, .cls-3 {
        fill: #fabc3c;
      }

      .cls-2, .cls-4 {
        fill-rule: evenodd;
      }

      .cls-4, .cls-5 {
        fill: #73683b;
      }
    </style>
  </defs>
  <rect class="cls-3" width="1366" height="768"/>
  <g>
    <g>
      <g class="cls-1">
        <path class="cls-4" d="M1381.12,751.91c-41.57,22.15-42.56,45.77-32.53,53.81l-3.17,5.48c-.72,1.24-.54,2.69.4,3.23s2.28-.03,3-1.27l3.17-5.48c11.98,4.67,31.94-8,30.34-55.08,3.33,2.06,6.28,5,10.46,9.76.36-.52.7-1.06,1.01-1.61,2.69-4.66,3.7-9.71,3.16-14.1-.21-1.72-.66-3.34-1.35-4.8.72-.94,1.56-1.76,2.44-2.42,1.04-.79,2.08-1.34,3-1.6.74-.21,1.33-.24,1.68-.04.07.04.12.1.15.17.47,1.08,1.73,1.29,2.81.46,1.08-.82,1.58-2.36,1.11-3.44-.33-.76-.85-1.32-1.5-1.69-1.12-.64-2.64-.67-4.3-.19-1.48.43-3.11,1.26-4.65,2.43-1.07.81-2.11,1.79-3.06,2.91-.73-.75-1.56-1.41-2.49-1.95-1.35-.78-2.81-1.25-4.33-1.44.59-1.53.97-3.08,1.16-4.56.24-1.92.15-3.75-.22-5.25-.42-1.67-1.21-2.97-2.32-3.63-.65-.38-1.39-.55-2.22-.46-1.17.13-2.25,1.33-2.42,2.68-.17,1.35.64,2.33,1.81,2.2.08,0,.15,0,.22.05.34.2.62.73.8,1.48.23.92.28,2.1.11,3.39-.18,1.41-.6,2.9-1.32,4.27-1.05.22-2.11.55-3.15.99-4.07,1.72-7.94,5.12-10.63,9.79-.32.55-.61,1.1-.88,1.67,6.22,1.24,10.25,2.33,13.7,4.2"/>
        <path class="cls-2" d="M1360.2,765.76c-1.68,1.43-3.22,2.84-4.62,4.24,3.62,3.11,7.45,5.79,11.48,8.08,3.94,2.24,8.07,4.1,12.37,5.61.51-1.92.97-3.96,1.36-6.12-3.69-1.36-7.23-2.98-10.63-4.91-3.48-1.98-6.81-4.27-9.97-6.9"/>
        <path class="cls-5" d="M1380.28,749.47c-18.34-13.19-33.61-11.96-43.94-5.45-8.3,5.24-13.46,13.89-14.63,21.49-1.22,7.93,1.75,14.71,9.79,15.67,9,1.07,24.74-5.63,48.44-27.8l2.51-2.35-2.18-1.57"/>
        <path class="cls-5" d="M1380.28,749.47c-18.34-13.19-33.61-11.96-43.94-5.45-8.3,5.24-13.46,13.89-14.63,21.49-1.22,7.93,1.75,14.71,9.79,15.67,9,1.07,24.74-5.63,48.44-27.8l2.51-2.35-2.18-1.57Z"/>
      </g>
      <g class="cls-1">
        <path class="cls-4" d="M1107.54,751.91c-41.57,22.15-42.56,45.77-32.53,53.81l-3.17,5.48c-.72,1.24-.54,2.69.4,3.23s2.28-.03,3-1.27l3.17-5.48c11.98,4.67,31.94-8,30.34-55.08,3.33,2.06,6.28,5,10.46,9.76.36-.52.7-1.06,1.01-1.61,2.69-4.66,3.7-9.71,3.16-14.1-.21-1.72-.66-3.34-1.35-4.8.72-.94,1.56-1.76,2.44-2.42,1.04-.79,2.08-1.34,3-1.6.74-.21,1.33-.24,1.68-.04.07.04.12.1.15.17.47,1.08,1.73,1.29,2.81.46,1.08-.82,1.58-2.36,1.11-3.44-.33-.76-.85-1.32-1.5-1.69-1.12-.64-2.64-.67-4.3-.19-1.48.43-3.11,1.26-4.65,2.43-1.07.81-2.11,1.79-3.06,2.91-.73-.75-1.56-1.41-2.49-1.95-1.35-.78-2.81-1.25-4.33-1.44.59-1.53.97-3.08,1.16-4.56.24-1.92.15-3.75-.22-5.25-.42-1.67-1.21-2.97-2.32-3.63-.65-.38-1.39-.55-2.22-.46-1.17.13-2.25,1.33-2.42,2.68-.17,1.35.64,2.33,1.81,2.2.08,0,.15,0,.22.05.34.2.62.73.8,1.48.23.92.28,2.1.11,3.39-.18,1.41-.6,2.9-1.32,4.27-1.05.22-2.11.55-3.15.99-4.07,1.72-7.94,5.12-10.63,9.79-.32.55-.61,1.1-.88,1.67,6.22,1.24,10.25,2.33,13.7,4.2"/>
        <path class="cls-2" d="M1086.63,765.77c-1.68,1.43-3.22,2.84-4.62,4.24,3.62,3.11,7.45,5.79,11.48,8.08,3.94,2.24,8.07,4.1,12.37,5.61.51-1.92.97-3.96,1.36-6.12-3.69-1.36-7.23-2.98-10.63-4.91-3.48-1.98-6.81-4.27-9.97-6.9"/>
        <path class="cls-5" d="M1111.26,752.1c20.59,9.29,27.16,23.13,26.68,35.33-.38,9.81-5.3,18.6-11.29,23.41-6.25,5.02-13.61,5.84-18.46-.65-5.43-7.26-7.49-24.24-.15-55.85l.78-3.34,2.44,1.1"/>
        <path class="cls-5" d="M1111.26,752.1c20.59,9.29,27.16,23.13,26.68,35.33-.38,9.81-5.3,18.6-11.29,23.41-6.25,5.02-13.61,5.84-18.46-.65-5.43-7.26-7.49-24.24-.15-55.85l.78-3.34,2.44,1.1Z"/>
        <path class="cls-5" d="M1106.71,749.47c-18.34-13.19-33.61-11.96-43.94-5.45-8.3,5.24-13.46,13.89-14.63,21.49-1.22,7.93,1.75,14.71,9.79,15.67,9,1.07,24.74-5.63,48.44-27.8l2.51-2.35-2.18-1.57"/>
        <path class="cls-5" d="M1106.71,749.47c-18.34-13.19-33.61-11.96-43.94-5.45-8.3,5.24-13.46,13.89-14.63,21.49-1.22,7.93,1.75,14.71,9.79,15.67,9,1.07,24.74-5.63,48.44-27.8l2.51-2.35-2.18-1.57Z"/>
      </g>
      <g class="cls-1">
        <path class="cls-4" d="M833.89,751.91c-41.57,22.15-42.56,45.77-32.53,53.81l-3.17,5.48c-.72,1.24-.54,2.69.4,3.23s2.28-.03,3-1.27l3.17-5.48c11.98,4.67,31.94-8,30.34-55.08,3.33,2.06,6.28,5,10.46,9.76.36-.52.7-1.06,1.01-1.61,2.69-4.66,3.7-9.71,3.16-14.1-.21-1.72-.66-3.34-1.35-4.8.72-.94,1.56-1.76,2.44-2.42,1.04-.79,2.08-1.34,3-1.6.74-.21,1.33-.24,1.68-.04.07.04.12.1.15.17.47,1.08,1.73,1.29,2.81.46,1.08-.82,1.58-2.36,1.11-3.44-.33-.76-.85-1.32-1.5-1.69-1.12-.64-2.64-.67-4.3-.19-1.48.43-3.11,1.26-4.65,2.43-1.07.81-2.11,1.79-3.06,2.91-.73-.75-1.56-1.41-2.49-1.95-1.35-.78-2.81-1.25-4.33-1.44.59-1.53.97-3.08,1.16-4.56.24-1.92.15-3.75-.22-5.25-.42-1.67-1.21-2.97-2.32-3.63-.65-.38-1.39-.55-2.22-.46-1.17.13-2.25,1.33-2.42,2.68-.17,1.35.64,2.33,1.81,2.2.08,0,.15,0,.22.05.34.2.62.73.8,1.48.23.92.28,2.1.11,3.39-.18,1.41-.6,2.9-1.32,4.27-1.05.22-2.11.55-3.15.99-4.07,1.72-7.94,5.12-10.63,9.79-.32.55-.61,1.1-.88,1.67,6.22,1.24,10.25,2.33,13.7,4.2"/>
        <path class="cls-2" d="M812.98,765.77c-1.68,1.43-3.22,2.84-4.62,4.24,3.62,3.11,7.45,5.79,11.48,8.08,3.94,2.24,8.07,4.1,12.37,5.61.51-1.92.97-3.96,1.36-6.12-3.69-1.36-7.23-2.98-10.63-4.91-3.48-1.98-6.81-4.27-9.97-6.9"/>
        <path class="cls-5" d="M837.62,752.1c20.59,9.29,27.16,23.13,26.68,35.33-.38,9.81-5.3,18.6-11.29,23.41-6.25,5.02-13.61,5.84-18.46-.65-5.43-7.26-7.49-24.24-.15-55.85l.78-3.34,2.44,1.1"/>
        <path class="cls-5" d="M837.62,752.1c20.59,9.29,27.16,23.13,26.68,35.33-.38,9.81-5.3,18.6-11.29,23.41-6.25,5.02-13.61,5.84-18.46-.65-5.43-7.26-7.49-24.24-.15-55.85l.78-3.34,2.44,1.1Z"/>
        <path class="cls-5" d="M833.06,749.47c-18.34-13.19-33.61-11.96-43.94-5.45-8.3,5.24-13.46,13.89-14.63,21.49-1.22,7.93,1.75,14.71,9.79,15.67,9,1.07,24.74-5.63,48.44-27.8l2.51-2.35-2.18-1.57"/>
        <path class="cls-5" d="M833.06,749.47c-18.34-13.19-33.61-11.96-43.94-5.45-8.3,5.24-13.46,13.89-14.63,21.49-1.22,7.93,1.75,14.71,9.79,15.67,9,1.07,24.74-5.63,48.44-27.8l2.51-2.35-2.18-1.57Z"/>
      </g>
      <g class="cls-1">
        <path class="cls-4" d="M560.34,751.91c-41.57,22.15-42.56,45.77-32.53,53.81l-3.17,5.48c-.72,1.24-.54,2.69.4,3.23s2.28-.03,3-1.27l3.17-5.48c11.98,4.67,31.94-8,30.34-55.08,3.33,2.06,6.28,5,10.46,9.76.36-.52.7-1.06,1.01-1.61,2.69-4.66,3.7-9.71,3.16-14.1-.21-1.72-.66-3.34-1.35-4.8.72-.94,1.56-1.76,2.44-2.42,1.04-.79,2.08-1.34,3-1.6.74-.21,1.33-.24,1.68-.04.07.04.12.1.15.17.47,1.08,1.73,1.29,2.81.46,1.08-.82,1.58-2.36,1.11-3.44-.33-.76-.85-1.32-1.5-1.69-1.12-.64-2.64-.67-4.3-.19-1.48.43-3.11,1.26-4.65,2.43-1.07.81-2.11,1.79-3.06,2.91-.73-.75-1.56-1.41-2.49-1.95-1.35-.78-2.81-1.25-4.33-1.44.59-1.53.97-3.08,1.16-4.56.24-1.92.15-3.75-.22-5.25-.42-1.67-1.21-2.97-2.32-3.63-.65-.38-1.39-.55-2.22-.46-1.17.13-2.25,1.33-2.42,2.68-.17,1.35.64,2.33,1.81,2.2.08,0,.15,0,.22.05.34.2.62.73.8,1.48.23.92.28,2.1.11,3.39-.18,1.41-.6,2.9-1.32,4.27-1.05.22-2.11.55-3.15.99-4.07,1.72-7.94,5.12-10.63,9.79-.32.55-.61,1.1-.88,1.67,6.22,1.24,10.25,2.33,13.7,4.2"/>
        <path class="cls-2" d="M539.43,765.77c-1.68,1.43-3.22,2.84-4.62,4.24,3.62,3.11,7.45,5.79,11.48,8.08,3.94,2.24,8.07,4.1,12.37,5.61.51-1.92.97-3.96,1.36-6.12-3.69-1.36-7.23-2.98-10.63-4.91-3.48-1.98-6.81-4.27-9.97-6.9"/>
        <path class="cls-5" d="M564.06,752.1c20.59,9.29,27.16,23.13,26.68,35.33-.38,9.81-5.3,18.6-11.29,23.41-6.25,5.02-13.61,5.84-18.46-.65-5.43-7.26-7.49-24.24-.15-55.85l.78-3.34,2.44,1.1"/>
        <path class="cls-5" d="M564.06,752.1c20.59,9.29,27.16,23.13,26.68,35.33-.38,9.81-5.3,18.6-11.29,23.41-6.25,5.02-13.61,5.84-18.46-.65-5.43-7.26-7.49-24.24-.15-55.85l.78-3.34,2.44,1.1Z"/>
        <path class="cls-5" d="M559.51,749.47c-18.34-13.19-33.61-11.96-43.94-5.45-8.3,5.24-13.46,13.89-14.63,21.49-1.22,7.93,1.75,14.71,9.79,15.67,9,1.07,24.74-5.63,48.44-27.8l2.51-2.35-2.18-1.57"/>
        <path class="cls-5" d="M559.51,749.47c-18.34-13.19-33.61-11.96-43.94-5.45-8.3,5.24-13.46,13.89-14.63,21.49-1.22,7.93,1.75,14.71,9.79,15.67,9,1.07,24.74-5.63,48.44-27.8l2.51-2.35-2.18-1.57Z"/>
      </g>
      <g class="cls-1">
        <path class="cls-4" d="M286.69,751.91c-41.57,22.15-42.56,45.77-32.53,53.81l-3.17,5.48c-.72,1.24-.54,2.69.4,3.23s2.28-.03,3-1.27l3.17-5.48c11.98,4.67,31.94-8,30.34-55.08,3.33,2.06,6.28,5,10.46,9.76.36-.52.7-1.06,1.01-1.61,2.69-4.66,3.7-9.71,3.16-14.1-.21-1.72-.66-3.34-1.35-4.8.72-.94,1.56-1.76,2.44-2.42,1.04-.79,2.08-1.34,3-1.6.74-.21,1.33-.24,1.68-.04.07.04.12.1.15.17.47,1.08,1.73,1.29,2.81.46,1.08-.82,1.58-2.36,1.11-3.44-.33-.76-.85-1.32-1.5-1.69-1.12-.64-2.64-.67-4.3-.19-1.48.43-3.11,1.26-4.65,2.43-1.07.81-2.11,1.79-3.06,2.91-.73-.75-1.56-1.41-2.49-1.95-1.35-.78-2.81-1.25-4.33-1.44.59-1.53.97-3.08,1.16-4.56.24-1.92.15-3.75-.22-5.25-.42-1.67-1.21-2.97-2.32-3.63-.65-.38-1.39-.55-2.22-.46-1.17.13-2.25,1.33-2.42,2.68-.17,1.35.64,2.33,1.81,2.2.08,0,.15,0,.22.05.34.2.62.73.8,1.48.23.92.28,2.1.11,3.39-.18,1.41-.6,2.9-1.32,4.27-1.05.22-2.11.55-3.15.99-4.07,1.72-7.94,5.12-10.63,9.79-.32.55-.61,1.1-.88,1.67,6.22,1.24,10.25,2.33,13.7,4.2"/>
        <path class="cls-2" d="M265.78,765.77c-1.68,1.43-3.22,2.84-4.62,4.24,3.62,3.11,7.45,5.79,11.48,8.08,3.94,2.24,8.07,4.1,12.37,5.61.51-1.92.97-3.96,1.36-6.12-3.69-1.36-7.23-2.98-10.63-4.91-3.48-1.98-6.81-4.27-9.97-6.9"/>
        <path class="cls-5" d="M290.42,752.1c20.59,9.29,27.16,23.13,26.68,35.33-.38,9.81-5.3,18.6-11.29,23.41-6.25,5.02-13.61,5.84-18.46-.65-5.43-7.26-7.49-24.24-.15-55.85l.78-3.34,2.44,1.1"/>
        <path class="cls-5" d="M290.42,752.1c20.59,9.29,27.16,23.13,26.68,35.33-.38,9.81-5.3,18.6-11.29,23.41-6.25,5.02-13.61,5.84-18.46-.65-5.43-7.26-7.49-24.24-.15-55.85l.78-3.34,2.44,1.1Z"/>
        <path class="cls-5" d="M285.86,749.47c-18.34-13.19-33.61-11.96-43.94-5.45-8.3,5.24-13.46,13.89-14.63,21.49-1.22,7.93,1.75,14.71,9.79,15.67,9,1.07,24.74-5.63,48.44-27.8l2.51-2.35-2.18-1.57"/>
        <path class="cls-5" d="M285.86,749.47c-18.34-13.19-33.61-11.96-43.94-5.45-8.3,5.24-13.46,13.89-14.63,21.49-1.22,7.93,1.75,14.71,9.79,15.67,9,1.07,24.74-5.63,48.44-27.8l2.51-2.35-2.18-1.57Z"/>
      </g>
      <g class="cls-1">
        <path class="cls-4" d="M13.12,751.91c-41.57,22.15-42.56,45.77-32.53,53.81l-3.17,5.48c-.72,1.24-.54,2.69.4,3.23s2.28-.03,3-1.27l3.17-5.48c11.98,4.67,31.94-8,30.34-55.08,3.33,2.06,6.28,5,10.46,9.76.36-.52.7-1.06,1.01-1.61,2.69-4.66,3.7-9.71,3.16-14.1-.21-1.72-.66-3.34-1.35-4.8.72-.94,1.56-1.76,2.44-2.42,1.04-.79,2.08-1.34,3-1.6.74-.21,1.33-.24,1.68-.04.07.04.12.1.15.17.47,1.08,1.73,1.29,2.81.46,1.08-.82,1.58-2.36,1.11-3.44-.33-.76-.85-1.32-1.5-1.69-1.12-.64-2.64-.67-4.3-.19-1.48.43-3.11,1.26-4.65,2.43-1.07.81-2.11,1.79-3.06,2.91-.73-.75-1.56-1.41-2.49-1.95-1.35-.78-2.81-1.25-4.33-1.44.59-1.53.97-3.08,1.16-4.56.24-1.92.15-3.75-.22-5.25-.42-1.67-1.21-2.97-2.32-3.63-.65-.38-1.39-.55-2.22-.46-1.17.13-2.25,1.33-2.42,2.68-.17,1.35.64,2.33,1.81,2.2.08,0,.15,0,.22.05.34.2.62.73.8,1.48.23.92.28,2.1.11,3.39-.18,1.41-.6,2.9-1.32,4.27-1.05.22-2.11.55-3.15.99-4.07,1.72-7.94,5.12-10.63,9.79-.32.55-.61,1.1-.88,1.67,6.22,1.24,10.25,2.33,13.7,4.2"/>
        <path class="cls-2" d="M-7.8,765.77c-1.68,1.43-3.22,2.84-4.62,4.24,3.62,3.11,7.45,5.79,11.48,8.08,3.94,2.24,8.07,4.1,12.37,5.61.51-1.92.97-3.96,1.36-6.12-3.69-1.36-7.23-2.98-10.63-4.91-3.48-1.98-6.81-4.27-9.97-6.9"/>
        <path class="cls-5" d="M16.84,752.1c20.59,9.29,27.16,23.13,26.68,35.33-.38,9.81-5.3,18.6-11.29,23.41-6.25,5.02-13.61,5.84-18.46-.65-5.43-7.26-7.49-24.24-.15-55.85l.78-3.34,2.44,1.1"/>
        <path class="cls-5" d="M16.84,752.1c20.59,9.29,27.16,23.13,26.68,35.33-.38,9.81-5.3,18.6-11.29,23.41-6.25,5.02-13.61,5.84-18.46-.65-5.43-7.26-7.49-24.24-.15-55.85l.78-3.34,2.44,1.1Z"/>
        <path class="cls-5" d="M12.28,749.47c-18.34-13.19-33.61-11.96-43.94-5.45-8.3,5.24-13.46,13.89-14.63,21.49-1.22,7.93,1.75,14.71,9.79,15.67,9,1.07,24.74-5.63,48.44-27.8l2.51-2.35-2.18-1.57"/>
        <path class="cls-5" d="M12.28,749.47c-18.34-13.19-33.61-11.96-43.94-5.45-8.3,5.24-13.46,13.89-14.63,21.49-1.22,7.93,1.75,14.71,9.79,15.67,9,1.07,24.74-5.63,48.44-27.8l2.51-2.35-2.18-1.57Z"/>
      </g>
    </g>
    <g>
      <g class="cls-1">
        <path class="cls-4" d="M1381.12,495.87c-41.57,22.15-42.56,45.77-32.53,53.81l-3.17,5.48c-.72,1.24-.54,2.69.4,3.23s2.28-.03,3-1.27l3.17-5.48c11.98,4.67,31.94-8,30.34-55.08,3.33,2.06,6.28,5,10.46,9.76.36-.52.7-1.06,1.01-1.61,2.69-4.66,3.7-9.71,3.16-14.1-.21-1.72-.66-3.34-1.35-4.8.72-.94,1.56-1.76,2.44-2.42,1.04-.79,2.08-1.34,3-1.6.74-.21,1.33-.24,1.68-.04.07.04.12.1.15.17.47,1.08,1.73,1.29,2.81.46,1.08-.82,1.58-2.36,1.11-3.44-.33-.76-.85-1.32-1.5-1.69-1.12-.64-2.64-.67-4.3-.19-1.48.43-3.11,1.26-4.65,2.43-1.07.81-2.11,1.79-3.06,2.91-.73-.75-1.56-1.41-2.49-1.95-1.35-.78-2.81-1.25-4.33-1.44.59-1.53.97-3.08,1.16-4.56.24-1.92.15-3.75-.22-5.25-.42-1.67-1.21-2.97-2.32-3.63-.65-.38-1.39-.55-2.22-.46-1.17.13-2.25,1.33-2.42,2.68-.17,1.35.64,2.33,1.81,2.2.08,0,.15,0,.22.05.34.2.62.73.8,1.48.23.92.28,2.1.11,3.39-.18,1.41-.6,2.9-1.32,4.27-1.05.22-2.11.55-3.15.99-4.07,1.72-7.94,5.12-10.63,9.79-.32.55-.61,1.1-.88,1.67,6.22,1.24,10.25,2.33,13.7,4.2"/>
        <path class="cls-2" d="M1349.03,521.76c-1.28,1.88-2.34,3.72-3.17,5.5,4.11,3.47,8.45,6.47,12.99,9.05,4.46,2.54,9.12,4.66,13.95,6.42,1.12-1.61,2.18-3.44,3.16-5.49-4.88-1.71-9.56-3.82-14.02-6.35-4.54-2.58-8.85-5.61-12.92-9.13"/>
        <path class="cls-2" d="M1360.2,509.72c-1.68,1.43-3.22,2.84-4.62,4.24,3.62,3.11,7.45,5.79,11.48,8.08,3.94,2.24,8.07,4.1,12.37,5.61.51-1.92.97-3.96,1.36-6.12-3.69-1.36-7.23-2.98-10.63-4.91-3.48-1.98-6.81-4.27-9.97-6.9"/>
        <path class="cls-5" d="M1380.28,493.43c-18.34-13.19-33.61-11.96-43.94-5.45-8.3,5.24-13.46,13.89-14.63,21.49-1.22,7.93,1.75,14.71,9.79,15.67,9,1.07,24.74-5.63,48.44-27.8l2.51-2.35-2.18-1.57"/>
        <path class="cls-5" d="M1380.28,493.43c-18.34-13.19-33.61-11.96-43.94-5.45-8.3,5.24-13.46,13.89-14.63,21.49-1.22,7.93,1.75,14.71,9.79,15.67,9,1.07,24.74-5.63,48.44-27.8l2.51-2.35-2.18-1.57Z"/>
      </g>
      <g class="cls-1">
        <path class="cls-4" d="M1107.54,495.87c-41.57,22.15-42.56,45.77-32.53,53.81l-3.17,5.48c-.72,1.24-.54,2.69.4,3.23s2.28-.03,3-1.27l3.17-5.48c11.98,4.67,31.94-8,30.34-55.08,3.33,2.06,6.28,5,10.46,9.76.36-.52.7-1.06,1.01-1.61,2.69-4.66,3.7-9.71,3.16-14.1-.21-1.72-.66-3.34-1.35-4.8.72-.94,1.56-1.76,2.44-2.42,1.04-.79,2.08-1.34,3-1.6.74-.21,1.33-.24,1.68-.04.07.04.12.1.15.17.47,1.08,1.73,1.29,2.81.46,1.08-.82,1.58-2.36,1.11-3.44-.33-.76-.85-1.32-1.5-1.69-1.12-.64-2.64-.67-4.3-.19-1.48.43-3.11,1.26-4.65,2.43-1.07.81-2.11,1.79-3.06,2.91-.73-.75-1.56-1.41-2.49-1.95-1.35-.78-2.81-1.25-4.33-1.44.59-1.53.97-3.08,1.16-4.56.24-1.92.15-3.75-.22-5.25-.42-1.67-1.21-2.97-2.32-3.63-.65-.38-1.39-.55-2.22-.46-1.17.13-2.25,1.33-2.42,2.68-.17,1.35.64,2.33,1.81,2.2.08,0,.15,0,.22.05.34.2.62.73.8,1.48.23.92.28,2.1.11,3.39-.18,1.41-.6,2.9-1.32,4.27-1.05.22-2.11.55-3.15.99-4.07,1.72-7.94,5.12-10.63,9.79-.32.55-.61,1.1-.88,1.67,6.22,1.24,10.25,2.33,13.7,4.2"/>
        <path class="cls-2" d="M1075.46,521.76c-1.28,1.88-2.34,3.72-3.17,5.5,4.11,3.47,8.45,6.47,12.99,9.05,4.46,2.54,9.12,4.66,13.95,6.42,1.12-1.61,2.18-3.44,3.16-5.49-4.88-1.71-9.56-3.82-14.02-6.35-4.54-2.58-8.85-5.61-12.92-9.13"/>
        <path class="cls-2" d="M1086.63,509.72c-1.68,1.43-3.22,2.84-4.62,4.24,3.62,3.11,7.45,5.79,11.48,8.08,3.94,2.24,8.07,4.1,12.37,5.61.51-1.92.97-3.96,1.36-6.12-3.69-1.36-7.23-2.98-10.63-4.91-3.48-1.98-6.81-4.27-9.97-6.9"/>
        <path class="cls-5" d="M1111.26,496.06c20.59,9.29,27.16,23.13,26.68,35.33-.38,9.81-5.3,18.6-11.29,23.41-6.25,5.02-13.61,5.84-18.46-.65-5.43-7.26-7.49-24.24-.15-55.85l.78-3.34,2.44,1.1"/>
        <path class="cls-5" d="M1111.26,496.06c20.59,9.29,27.16,23.13,26.68,35.33-.38,9.81-5.3,18.6-11.29,23.41-6.25,5.02-13.61,5.84-18.46-.65-5.43-7.26-7.49-24.24-.15-55.85l.78-3.34,2.44,1.1Z"/>
        <path class="cls-5" d="M1106.71,493.43c-18.34-13.19-33.61-11.96-43.94-5.45-8.3,5.24-13.46,13.89-14.63,21.49-1.22,7.93,1.75,14.71,9.79,15.67,9,1.07,24.74-5.63,48.44-27.8l2.51-2.35-2.18-1.57"/>
        <path class="cls-5" d="M1106.71,493.43c-18.34-13.19-33.61-11.96-43.94-5.45-8.3,5.24-13.46,13.89-14.63,21.49-1.22,7.93,1.75,14.71,9.79,15.67,9,1.07,24.74-5.63,48.44-27.8l2.51-2.35-2.18-1.57Z"/>
      </g>
      <g class="cls-1">
        <path class="cls-4" d="M833.89,495.87c-41.57,22.15-42.56,45.77-32.53,53.81l-3.17,5.48c-.72,1.24-.54,2.69.4,3.23s2.28-.03,3-1.27l3.17-5.48c11.98,4.67,31.94-8,30.34-55.08,3.33,2.06,6.28,5,10.46,9.76.36-.52.7-1.06,1.01-1.61,2.69-4.66,3.7-9.71,3.16-14.1-.21-1.72-.66-3.34-1.35-4.8.72-.94,1.56-1.76,2.44-2.42,1.04-.79,2.08-1.34,3-1.6.74-.21,1.33-.24,1.68-.04.07.04.12.1.15.17.47,1.08,1.73,1.29,2.81.46,1.08-.82,1.58-2.36,1.11-3.44-.33-.76-.85-1.32-1.5-1.69-1.12-.64-2.64-.67-4.3-.19-1.48.43-3.11,1.26-4.65,2.43-1.07.81-2.11,1.79-3.06,2.91-.73-.75-1.56-1.41-2.49-1.95-1.35-.78-2.81-1.25-4.33-1.44.59-1.53.97-3.08,1.16-4.56.24-1.92.15-3.75-.22-5.25-.42-1.67-1.21-2.97-2.32-3.63-.65-.38-1.39-.55-2.22-.46-1.17.13-2.25,1.33-2.42,2.68-.17,1.35.64,2.33,1.81,2.2.08,0,.15,0,.22.05.34.2.62.73.8,1.48.23.92.28,2.1.11,3.39-.18,1.41-.6,2.9-1.32,4.27-1.05.22-2.11.55-3.15.99-4.07,1.72-7.94,5.12-10.63,9.79-.32.55-.61,1.1-.88,1.67,6.22,1.24,10.25,2.33,13.7,4.2"/>
        <path class="cls-2" d="M801.81,521.76c-1.28,1.88-2.34,3.72-3.17,5.5,4.11,3.47,8.45,6.47,12.99,9.05,4.46,2.54,9.12,4.66,13.95,6.42,1.12-1.61,2.18-3.44,3.16-5.49-4.88-1.71-9.56-3.82-14.02-6.35-4.54-2.58-8.85-5.61-12.92-9.13"/>
        <path class="cls-2" d="M812.98,509.72c-1.68,1.43-3.22,2.84-4.62,4.24,3.62,3.11,7.45,5.79,11.48,8.08,3.94,2.24,8.07,4.1,12.37,5.61.51-1.92.97-3.96,1.36-6.12-3.69-1.36-7.23-2.98-10.63-4.91-3.48-1.98-6.81-4.27-9.97-6.9"/>
        <path class="cls-5" d="M837.62,496.06c20.59,9.29,27.16,23.13,26.68,35.33-.38,9.81-5.3,18.6-11.29,23.41-6.25,5.02-13.61,5.84-18.46-.65-5.43-7.26-7.49-24.24-.15-55.85l.78-3.34,2.44,1.1"/>
        <path class="cls-5" d="M837.62,496.06c20.59,9.29,27.16,23.13,26.68,35.33-.38,9.81-5.3,18.6-11.29,23.41-6.25,5.02-13.61,5.84-18.46-.65-5.43-7.26-7.49-24.24-.15-55.85l.78-3.34,2.44,1.1Z"/>
        <path class="cls-5" d="M833.06,493.43c-18.34-13.19-33.61-11.96-43.94-5.45-8.3,5.24-13.46,13.89-14.63,21.49-1.22,7.93,1.75,14.71,9.79,15.67,9,1.07,24.74-5.63,48.44-27.8l2.51-2.35-2.18-1.57"/>
        <path class="cls-5" d="M833.06,493.43c-18.34-13.19-33.61-11.96-43.94-5.45-8.3,5.24-13.46,13.89-14.63,21.49-1.22,7.93,1.75,14.71,9.79,15.67,9,1.07,24.74-5.63,48.44-27.8l2.51-2.35-2.18-1.57Z"/>
      </g>
      <g class="cls-1">
        <path class="cls-4" d="M560.34,495.87c-41.57,22.15-42.56,45.77-32.53,53.81l-3.17,5.48c-.72,1.24-.54,2.69.4,3.23s2.28-.03,3-1.27l3.17-5.48c11.98,4.67,31.94-8,30.34-55.08,3.33,2.06,6.28,5,10.46,9.76.36-.52.7-1.06,1.01-1.61,2.69-4.66,3.7-9.71,3.16-14.1-.21-1.72-.66-3.34-1.35-4.8.72-.94,1.56-1.76,2.44-2.42,1.04-.79,2.08-1.34,3-1.6.74-.21,1.33-.24,1.68-.04.07.04.12.1.15.17.47,1.08,1.73,1.29,2.81.46,1.08-.82,1.58-2.36,1.11-3.44-.33-.76-.85-1.32-1.5-1.69-1.12-.64-2.64-.67-4.3-.19-1.48.43-3.11,1.26-4.65,2.43-1.07.81-2.11,1.79-3.06,2.91-.73-.75-1.56-1.41-2.49-1.95-1.35-.78-2.81-1.25-4.33-1.44.59-1.53.97-3.08,1.16-4.56.24-1.92.15-3.75-.22-5.25-.42-1.67-1.21-2.97-2.32-3.63-.65-.38-1.39-.55-2.22-.46-1.17.13-2.25,1.33-2.42,2.68-.17,1.35.64,2.33,1.81,2.2.08,0,.15,0,.22.05.34.2.62.73.8,1.48.23.92.28,2.1.11,3.39-.18,1.41-.6,2.9-1.32,4.27-1.05.22-2.11.55-3.15.99-4.07,1.72-7.94,5.12-10.63,9.79-.32.55-.61,1.1-.88,1.67,6.22,1.24,10.25,2.33,13.7,4.2"/>
        <path class="cls-2" d="M528.26,521.76c-1.28,1.88-2.34,3.72-3.17,5.5,4.11,3.47,8.45,6.47,12.99,9.05,4.46,2.54,9.12,4.66,13.95,6.42,1.12-1.61,2.18-3.44,3.16-5.49-4.88-1.71-9.56-3.82-14.02-6.35-4.54-2.58-8.85-5.61-12.92-9.13"/>
        <path class="cls-2" d="M539.43,509.72c-1.68,1.43-3.22,2.84-4.62,4.24,3.62,3.11,7.45,5.79,11.48,8.08,3.94,2.24,8.07,4.1,12.37,5.61.51-1.92.97-3.96,1.36-6.12-3.69-1.36-7.23-2.98-10.63-4.91-3.48-1.98-6.81-4.27-9.97-6.9"/>
        <path class="cls-5" d="M564.06,496.06c20.59,9.29,27.16,23.13,26.68,35.33-.38,9.81-5.3,18.6-11.29,23.41-6.25,5.02-13.61,5.84-18.46-.65-5.43-7.26-7.49-24.24-.15-55.85l.78-3.34,2.44,1.1"/>
        <path class="cls-5" d="M564.06,496.06c20.59,9.29,27.16,23.13,26.68,35.33-.38,9.81-5.3,18.6-11.29,23.41-6.25,5.02-13.61,5.84-18.46-.65-5.43-7.26-7.49-24.24-.15-55.85l.78-3.34,2.44,1.1Z"/>
        <path class="cls-5" d="M559.51,493.43c-18.34-13.19-33.61-11.96-43.94-5.45-8.3,5.24-13.46,13.89-14.63,21.49-1.22,7.93,1.75,14.71,9.79,15.67,9,1.07,24.74-5.63,48.44-27.8l2.51-2.35-2.18-1.57"/>
        <path class="cls-5" d="M559.51,493.43c-18.34-13.19-33.61-11.96-43.94-5.45-8.3,5.24-13.46,13.89-14.63,21.49-1.22,7.93,1.75,14.71,9.79,15.67,9,1.07,24.74-5.63,48.44-27.8l2.51-2.35-2.18-1.57Z"/>
      </g>
      <g class="cls-1">
        <path class="cls-4" d="M286.69,495.87c-41.57,22.15-42.56,45.77-32.53,53.81l-3.17,5.48c-.72,1.24-.54,2.69.4,3.23s2.28-.03,3-1.27l3.17-5.48c11.98,4.67,31.94-8,30.34-55.08,3.33,2.06,6.28,5,10.46,9.76.36-.52.7-1.06,1.01-1.61,2.69-4.66,3.7-9.71,3.16-14.1-.21-1.72-.66-3.34-1.35-4.8.72-.94,1.56-1.76,2.44-2.42,1.04-.79,2.08-1.34,3-1.6.74-.21,1.33-.24,1.68-.04.07.04.12.1.15.17.47,1.08,1.73,1.29,2.81.46,1.08-.82,1.58-2.36,1.11-3.44-.33-.76-.85-1.32-1.5-1.69-1.12-.64-2.64-.67-4.3-.19-1.48.43-3.11,1.26-4.65,2.43-1.07.81-2.11,1.79-3.06,2.91-.73-.75-1.56-1.41-2.49-1.95-1.35-.78-2.81-1.25-4.33-1.44.59-1.53.97-3.08,1.16-4.56.24-1.92.15-3.75-.22-5.25-.42-1.67-1.21-2.97-2.32-3.63-.65-.38-1.39-.55-2.22-.46-1.17.13-2.25,1.33-2.42,2.68-.17,1.35.64,2.33,1.81,2.2.08,0,.15,0,.22.05.34.2.62.73.8,1.48.23.92.28,2.1.11,3.39-.18,1.41-.6,2.9-1.32,4.27-1.05.22-2.11.55-3.15.99-4.07,1.72-7.94,5.12-10.63,9.79-.32.55-.61,1.1-.88,1.67,6.22,1.24,10.25,2.33,13.7,4.2"/>
        <path class="cls-2" d="M254.61,521.76c-1.28,1.88-2.34,3.72-3.17,5.5,4.11,3.47,8.45,6.47,12.99,9.05,4.46,2.54,9.12,4.66,13.95,6.42,1.12-1.61,2.18-3.44,3.16-5.49-4.88-1.71-9.56-3.82-14.02-6.35-4.54-2.58-8.85-5.61-12.92-9.13"/>
        <path class="cls-2" d="M265.78,509.72c-1.68,1.43-3.22,2.84-4.62,4.24,3.62,3.11,7.45,5.79,11.48,8.08,3.94,2.24,8.07,4.1,12.37,5.61.51-1.92.97-3.96,1.36-6.12-3.69-1.36-7.23-2.98-10.63-4.91-3.48-1.98-6.81-4.27-9.97-6.9"/>
        <path class="cls-5" d="M290.42,496.06c20.59,9.29,27.16,23.13,26.68,35.33-.38,9.81-5.3,18.6-11.29,23.41-6.25,5.02-13.61,5.84-18.46-.65-5.43-7.26-7.49-24.24-.15-55.85l.78-3.34,2.44,1.1"/>
        <path class="cls-5" d="M290.42,496.06c20.59,9.29,27.16,23.13,26.68,35.33-.38,9.81-5.3,18.6-11.29,23.41-6.25,5.02-13.61,5.84-18.46-.65-5.43-7.26-7.49-24.24-.15-55.85l.78-3.34,2.44,1.1Z"/>
        <path class="cls-5" d="M285.86,493.43c-18.34-13.19-33.61-11.96-43.94-5.45-8.3,5.24-13.46,13.89-14.63,21.49-1.22,7.93,1.75,14.71,9.79,15.67,9,1.07,24.74-5.63,48.44-27.8l2.51-2.35-2.18-1.57"/>
        <path class="cls-5" d="M285.86,493.43c-18.34-13.19-33.61-11.96-43.94-5.45-8.3,5.24-13.46,13.89-14.63,21.49-1.22,7.93,1.75,14.71,9.79,15.67,9,1.07,24.74-5.63,48.44-27.8l2.51-2.35-2.18-1.57Z"/>
      </g>
      <g class="cls-1">
        <path class="cls-4" d="M13.12,495.87c-41.57,22.15-42.56,45.77-32.53,53.81l-3.17,5.48c-.72,1.24-.54,2.69.4,3.23s2.28-.03,3-1.27l3.17-5.48c11.98,4.67,31.94-8,30.34-55.08,3.33,2.06,6.28,5,10.46,9.76.36-.52.7-1.06,1.01-1.61,2.69-4.66,3.7-9.71,3.16-14.1-.21-1.72-.66-3.34-1.35-4.8.72-.94,1.56-1.76,2.44-2.42,1.04-.79,2.08-1.34,3-1.6.74-.21,1.33-.24,1.68-.04.07.04.12.1.15.17.47,1.08,1.73,1.29,2.81.46,1.08-.82,1.58-2.36,1.11-3.44-.33-.76-.85-1.32-1.5-1.69-1.12-.64-2.64-.67-4.3-.19-1.48.43-3.11,1.26-4.65,2.43-1.07.81-2.11,1.79-3.06,2.91-.73-.75-1.56-1.41-2.49-1.95-1.35-.78-2.81-1.25-4.33-1.44.59-1.53.97-3.08,1.16-4.56.24-1.92.15-3.75-.22-5.25-.42-1.67-1.21-2.97-2.32-3.63-.65-.38-1.39-.55-2.22-.46-1.17.13-2.25,1.33-2.42,2.68-.17,1.35.64,2.33,1.81,2.2.08,0,.15,0,.22.05.34.2.62.73.8,1.48.23.92.28,2.1.11,3.39-.18,1.41-.6,2.9-1.32,4.27-1.05.22-2.11.55-3.15.99-4.07,1.72-7.94,5.12-10.63,9.79-.32.55-.61,1.1-.88,1.67,6.22,1.24,10.25,2.33,13.7,4.2"/>
        <path class="cls-2" d="M-18.97,521.76c-1.28,1.88-2.34,3.72-3.17,5.5,4.11,3.47,8.45,6.47,12.99,9.05,4.46,2.54,9.12,4.66,13.95,6.42,1.12-1.61,2.18-3.44,3.16-5.49-4.88-1.71-9.56-3.82-14.02-6.35-4.54-2.58-8.85-5.61-12.92-9.13"/>
        <path class="cls-2" d="M-7.8,509.72c-1.68,1.43-3.22,2.84-4.62,4.24,3.62,3.11,7.45,5.79,11.48,8.08,3.94,2.24,8.07,4.1,12.37,5.61.51-1.92.97-3.96,1.36-6.12-3.69-1.36-7.23-2.98-10.63-4.91-3.48-1.98-6.81-4.27-9.97-6.9"/>
        <path class="cls-5" d="M16.84,496.06c20.59,9.29,27.16,23.13,26.68,35.33-.38,9.81-5.3,18.6-11.29,23.41-6.25,5.02-13.61,5.84-18.46-.65-5.43-7.26-7.49-24.24-.15-55.85l.78-3.34,2.44,1.1"/>
        <path class="cls-5" d="M16.84,496.06c20.59,9.29,27.16,23.13,26.68,35.33-.38,9.81-5.3,18.6-11.29,23.41-6.25,5.02-13.61,5.84-18.46-.65-5.43-7.26-7.49-24.24-.15-55.85l.78-3.34,2.44,1.1Z"/>
        <path class="cls-5" d="M12.28,493.43c-18.34-13.19-33.61-11.96-43.94-5.45-8.3,5.24-13.46,13.89-14.63,21.49-1.22,7.93,1.75,14.71,9.79,15.67,9,1.07,24.74-5.63,48.44-27.8l2.51-2.35-2.18-1.57"/>
        <path class="cls-5" d="M12.28,493.43c-18.34-13.19-33.61-11.96-43.94-5.45-8.3,5.24-13.46,13.89-14.63,21.49-1.22,7.93,1.75,14.71,9.79,15.67,9,1.07,24.74-5.63,48.44-27.8l2.51-2.35-2.18-1.57Z"/>
      </g>
    </g>
    <g>
      <g class="cls-1">
        <path class="cls-4" d="M1381.12,239.95c-41.57,22.15-42.56,45.77-32.53,53.81l-3.17,5.48c-.72,1.24-.54,2.69.4,3.23s2.28-.03,3-1.27l3.17-5.48c11.98,4.67,31.94-8,30.34-55.08,3.33,2.06,6.28,5,10.46,9.76.36-.52.7-1.06,1.01-1.61,2.69-4.66,3.7-9.71,3.16-14.1-.21-1.72-.66-3.34-1.35-4.8.72-.94,1.56-1.76,2.44-2.42,1.04-.79,2.08-1.34,3-1.6.74-.21,1.33-.24,1.68-.04.07.04.12.1.15.17.47,1.08,1.73,1.29,2.81.46,1.08-.82,1.58-2.36,1.11-3.44-.33-.76-.85-1.32-1.5-1.69-1.12-.64-2.64-.67-4.3-.19-1.48.43-3.11,1.26-4.65,2.43-1.07.81-2.11,1.79-3.06,2.91-.73-.75-1.56-1.41-2.49-1.95-1.35-.78-2.81-1.25-4.33-1.44.59-1.53.97-3.08,1.16-4.56.24-1.92.15-3.75-.22-5.25-.42-1.67-1.21-2.97-2.32-3.63-.65-.38-1.39-.55-2.22-.46-1.17.13-2.25,1.33-2.42,2.68-.17,1.35.64,2.33,1.81,2.2.08,0,.15,0,.22.05.34.2.62.73.8,1.48.23.92.28,2.1.11,3.39-.18,1.41-.6,2.9-1.32,4.27-1.05.22-2.11.55-3.15.99-4.07,1.72-7.94,5.12-10.63,9.79-.32.55-.61,1.1-.88,1.67,6.22,1.24,10.25,2.33,13.7,4.2"/>
        <path class="cls-2" d="M1349.03,265.84c-1.28,1.88-2.34,3.72-3.17,5.5,4.11,3.47,8.45,6.47,12.99,9.05,4.46,2.54,9.12,4.66,13.95,6.42,1.12-1.61,2.18-3.44,3.16-5.49-4.88-1.71-9.56-3.82-14.02-6.35-4.54-2.58-8.85-5.61-12.92-9.13"/>
        <path class="cls-2" d="M1360.2,253.81c-1.68,1.43-3.22,2.84-4.62,4.24,3.62,3.11,7.45,5.79,11.48,8.08,3.94,2.24,8.07,4.1,12.37,5.61.51-1.92.97-3.96,1.36-6.12-3.69-1.36-7.23-2.98-10.63-4.91-3.48-1.98-6.81-4.27-9.97-6.9"/>
        <path class="cls-5" d="M1380.28,237.51c-18.34-13.19-33.61-11.96-43.94-5.45-8.3,5.24-13.46,13.89-14.63,21.49-1.22,7.93,1.75,14.71,9.79,15.67,9,1.07,24.74-5.63,48.44-27.8l2.51-2.35-2.18-1.57"/>
        <path class="cls-5" d="M1380.28,237.51c-18.34-13.19-33.61-11.96-43.94-5.45-8.3,5.24-13.46,13.89-14.63,21.49-1.22,7.93,1.75,14.71,9.79,15.67,9,1.07,24.74-5.63,48.44-27.8l2.51-2.35-2.18-1.57Z"/>
      </g>
      <g class="cls-1">
        <path class="cls-4" d="M1107.54,239.95c-41.57,22.15-42.56,45.77-32.53,53.81l-3.17,5.48c-.72,1.24-.54,2.69.4,3.23s2.28-.03,3-1.27l3.17-5.48c11.98,4.67,31.94-8,30.34-55.08,3.33,2.06,6.28,5,10.46,9.76.36-.52.7-1.06,1.01-1.61,2.69-4.66,3.7-9.71,3.16-14.1-.21-1.72-.66-3.34-1.35-4.8.72-.94,1.56-1.76,2.44-2.42,1.04-.79,2.08-1.34,3-1.6.74-.21,1.33-.24,1.68-.04.07.04.12.1.15.17.47,1.08,1.73,1.29,2.81.46,1.08-.82,1.58-2.36,1.11-3.44-.33-.76-.85-1.32-1.5-1.69-1.12-.64-2.64-.67-4.3-.19-1.48.43-3.11,1.26-4.65,2.43-1.07.81-2.11,1.79-3.06,2.91-.73-.75-1.56-1.41-2.49-1.95-1.35-.78-2.81-1.25-4.33-1.44.59-1.53.97-3.08,1.16-4.56.24-1.92.15-3.75-.22-5.25-.42-1.67-1.21-2.97-2.32-3.63-.65-.38-1.39-.55-2.22-.46-1.17.13-2.25,1.33-2.42,2.68-.17,1.35.64,2.33,1.81,2.2.08,0,.15,0,.22.05.34.2.62.73.8,1.48.23.92.28,2.1.11,3.39-.18,1.41-.6,2.9-1.32,4.27-1.05.22-2.11.55-3.15.99-4.07,1.72-7.94,5.12-10.63,9.79-.32.55-.61,1.1-.88,1.67,6.22,1.24,10.25,2.33,13.7,4.2"/>
        <path class="cls-2" d="M1075.46,265.84c-1.28,1.88-2.34,3.72-3.17,5.5,4.11,3.47,8.45,6.47,12.99,9.05,4.46,2.54,9.12,4.66,13.95,6.42,1.12-1.61,2.18-3.44,3.16-5.49-4.88-1.71-9.56-3.82-14.02-6.35-4.54-2.58-8.85-5.61-12.92-9.13"/>
        <path class="cls-2" d="M1086.63,253.81c-1.68,1.43-3.22,2.84-4.62,4.24,3.62,3.11,7.45,5.79,11.48,8.08,3.94,2.24,8.07,4.1,12.37,5.61.51-1.92.97-3.96,1.36-6.12-3.69-1.36-7.23-2.98-10.63-4.91-3.48-1.98-6.81-4.27-9.97-6.9"/>
        <path class="cls-5" d="M1111.26,240.14c20.59,9.29,27.16,23.13,26.68,35.33-.38,9.81-5.3,18.6-11.29,23.41-6.25,5.02-13.61,5.84-18.46-.65-5.43-7.26-7.49-24.24-.15-55.85l.78-3.34,2.44,1.1"/>
        <path class="cls-5" d="M1111.26,240.14c20.59,9.29,27.16,23.13,26.68,35.33-.38,9.81-5.3,18.6-11.29,23.41-6.25,5.02-13.61,5.84-18.46-.65-5.43-7.26-7.49-24.24-.15-55.85l.78-3.34,2.44,1.1Z"/>
        <path class="cls-5" d="M1106.71,237.51c-18.34-13.19-33.61-11.96-43.94-5.45-8.3,5.24-13.46,13.89-14.63,21.49-1.22,7.93,1.75,14.71,9.79,15.67,9,1.07,24.74-5.63,48.44-27.8l2.51-2.35-2.18-1.57"/>
        <path class="cls-5" d="M1106.71,237.51c-18.34-13.19-33.61-11.96-43.94-5.45-8.3,5.24-13.46,13.89-14.63,21.49-1.22,7.93,1.75,14.71,9.79,15.67,9,1.07,24.74-5.63,48.44-27.8l2.51-2.35-2.18-1.57Z"/>
      </g>
      <g class="cls-1">
        <path class="cls-4" d="M833.89,239.95c-41.57,22.15-42.56,45.77-32.53,53.81l-3.17,5.48c-.72,1.24-.54,2.69.4,3.23s2.28-.03,3-1.27l3.17-5.48c11.98,4.67,31.94-8,30.34-55.08,3.33,2.06,6.28,5,10.46,9.76.36-.52.7-1.06,1.01-1.61,2.69-4.66,3.7-9.71,3.16-14.1-.21-1.72-.66-3.34-1.35-4.8.72-.94,1.56-1.76,2.44-2.42,1.04-.79,2.08-1.34,3-1.6.74-.21,1.33-.24,1.68-.04.07.04.12.1.15.17.47,1.08,1.73,1.29,2.81.46,1.08-.82,1.58-2.36,1.11-3.44-.33-.76-.85-1.32-1.5-1.69-1.12-.64-2.64-.67-4.3-.19-1.48.43-3.11,1.26-4.65,2.43-1.07.81-2.11,1.79-3.06,2.91-.73-.75-1.56-1.41-2.49-1.95-1.35-.78-2.81-1.25-4.33-1.44.59-1.53.97-3.08,1.16-4.56.24-1.92.15-3.75-.22-5.25-.42-1.67-1.21-2.97-2.32-3.63-.65-.38-1.39-.55-2.22-.46-1.17.13-2.25,1.33-2.42,2.68-.17,1.35.64,2.33,1.81,2.2.08,0,.15,0,.22.05.34.2.62.73.8,1.48.23.92.28,2.1.11,3.39-.18,1.41-.6,2.9-1.32,4.27-1.05.22-2.11.55-3.15.99-4.07,1.72-7.94,5.12-10.63,9.79-.32.55-.61,1.1-.88,1.67,6.22,1.24,10.25,2.33,13.7,4.2"/>
        <path class="cls-2" d="M801.81,265.84c-1.28,1.88-2.34,3.72-3.17,5.5,4.11,3.47,8.45,6.47,12.99,9.05,4.46,2.54,9.12,4.66,13.95,6.42,1.12-1.61,2.18-3.44,3.16-5.49-4.88-1.71-9.56-3.82-14.02-6.35-4.54-2.58-8.85-5.61-12.92-9.13"/>
        <path class="cls-2" d="M812.98,253.81c-1.68,1.43-3.22,2.84-4.62,4.24,3.62,3.11,7.45,5.79,11.48,8.08,3.94,2.24,8.07,4.1,12.37,5.61.51-1.92.97-3.96,1.36-6.12-3.69-1.36-7.23-2.98-10.63-4.91-3.48-1.98-6.81-4.27-9.97-6.9"/>
        <path class="cls-5" d="M837.62,240.14c20.59,9.29,27.16,23.13,26.68,35.33-.38,9.81-5.3,18.6-11.29,23.41-6.25,5.02-13.61,5.84-18.46-.65-5.43-7.26-7.49-24.24-.15-55.85l.78-3.34,2.44,1.1"/>
        <path class="cls-5" d="M837.62,240.14c20.59,9.29,27.16,23.13,26.68,35.33-.38,9.81-5.3,18.6-11.29,23.41-6.25,5.02-13.61,5.84-18.46-.65-5.43-7.26-7.49-24.24-.15-55.85l.78-3.34,2.44,1.1Z"/>
        <path class="cls-5" d="M833.06,237.51c-18.34-13.19-33.61-11.96-43.94-5.45-8.3,5.24-13.46,13.89-14.63,21.49-1.22,7.93,1.75,14.71,9.79,15.67,9,1.07,24.74-5.63,48.44-27.8l2.51-2.35-2.18-1.57"/>
        <path class="cls-5" d="M833.06,237.51c-18.34-13.19-33.61-11.96-43.94-5.45-8.3,5.24-13.46,13.89-14.63,21.49-1.22,7.93,1.75,14.71,9.79,15.67,9,1.07,24.74-5.63,48.44-27.8l2.51-2.35-2.18-1.57Z"/>
      </g>
      <g class="cls-1">
        <path class="cls-4" d="M560.34,239.95c-41.57,22.15-42.56,45.77-32.53,53.81l-3.17,5.48c-.72,1.24-.54,2.69.4,3.23s2.28-.03,3-1.27l3.17-5.48c11.98,4.67,31.94-8,30.34-55.08,3.33,2.06,6.28,5,10.46,9.76.36-.52.7-1.06,1.01-1.61,2.69-4.66,3.7-9.71,3.16-14.1-.21-1.72-.66-3.34-1.35-4.8.72-.94,1.56-1.76,2.44-2.42,1.04-.79,2.08-1.34,3-1.6.74-.21,1.33-.24,1.68-.04.07.04.12.1.15.17.47,1.08,1.73,1.29,2.81.46,1.08-.82,1.58-2.36,1.11-3.44-.33-.76-.85-1.32-1.5-1.69-1.12-.64-2.64-.67-4.3-.19-1.48.43-3.11,1.26-4.65,2.43-1.07.81-2.11,1.79-3.06,2.91-.73-.75-1.56-1.41-2.49-1.95-1.35-.78-2.81-1.25-4.33-1.44.59-1.53.97-3.08,1.16-4.56.24-1.92.15-3.75-.22-5.25-.42-1.67-1.21-2.97-2.32-3.63-.65-.38-1.39-.55-2.22-.46-1.17.13-2.25,1.33-2.42,2.68-.17,1.35.64,2.33,1.81,2.2.08,0,.15,0,.22.05.34.2.62.73.8,1.48.23.92.28,2.1.11,3.39-.18,1.41-.6,2.9-1.32,4.27-1.05.22-2.11.55-3.15.99-4.07,1.72-7.94,5.12-10.63,9.79-.32.55-.61,1.1-.88,1.67,6.22,1.24,10.25,2.33,13.7,4.2"/>
        <path class="cls-2" d="M528.26,265.84c-1.28,1.88-2.34,3.72-3.17,5.5,4.11,3.47,8.45,6.47,12.99,9.05,4.46,2.54,9.12,4.66,13.95,6.42,1.12-1.61,2.18-3.44,3.16-5.49-4.88-1.71-9.56-3.82-14.02-6.35-4.54-2.58-8.85-5.61-12.92-9.13"/>
        <path class="cls-2" d="M539.43,253.81c-1.68,1.43-3.22,2.84-4.62,4.24,3.62,3.11,7.45,5.79,11.48,8.08,3.94,2.24,8.07,4.1,12.37,5.61.51-1.92.97-3.96,1.36-6.12-3.69-1.36-7.23-2.98-10.63-4.91-3.48-1.98-6.81-4.27-9.97-6.9"/>
        <path class="cls-5" d="M564.06,240.14c20.59,9.29,27.16,23.13,26.68,35.33-.38,9.81-5.3,18.6-11.29,23.41-6.25,5.02-13.61,5.84-18.46-.65-5.43-7.26-7.49-24.24-.15-55.85l.78-3.34,2.44,1.1"/>
        <path class="cls-5" d="M564.06,240.14c20.59,9.29,27.16,23.13,26.68,35.33-.38,9.81-5.3,18.6-11.29,23.41-6.25,5.02-13.61,5.84-18.46-.65-5.43-7.26-7.49-24.24-.15-55.85l.78-3.34,2.44,1.1Z"/>
        <path class="cls-5" d="M559.51,237.51c-18.34-13.19-33.61-11.96-43.94-5.45-8.3,5.24-13.46,13.89-14.63,21.49-1.22,7.93,1.75,14.71,9.79,15.67,9,1.07,24.74-5.63,48.44-27.8l2.51-2.35-2.18-1.57"/>
        <path class="cls-5" d="M559.51,237.51c-18.34-13.19-33.61-11.96-43.94-5.45-8.3,5.24-13.46,13.89-14.63,21.49-1.22,7.93,1.75,14.71,9.79,15.67,9,1.07,24.74-5.63,48.44-27.8l2.51-2.35-2.18-1.57Z"/>
      </g>
      <g class="cls-1">
        <path class="cls-4" d="M286.69,239.95c-41.57,22.15-42.56,45.77-32.53,53.81l-3.17,5.48c-.72,1.24-.54,2.69.4,3.23s2.28-.03,3-1.27l3.17-5.48c11.98,4.67,31.94-8,30.34-55.08,3.33,2.06,6.28,5,10.46,9.76.36-.52.7-1.06,1.01-1.61,2.69-4.66,3.7-9.71,3.16-14.1-.21-1.72-.66-3.34-1.35-4.8.72-.94,1.56-1.76,2.44-2.42,1.04-.79,2.08-1.34,3-1.6.74-.21,1.33-.24,1.68-.04.07.04.12.1.15.17.47,1.08,1.73,1.29,2.81.46,1.08-.82,1.58-2.36,1.11-3.44-.33-.76-.85-1.32-1.5-1.69-1.12-.64-2.64-.67-4.3-.19-1.48.43-3.11,1.26-4.65,2.43-1.07.81-2.11,1.79-3.06,2.91-.73-.75-1.56-1.41-2.49-1.95-1.35-.78-2.81-1.25-4.33-1.44.59-1.53.97-3.08,1.16-4.56.24-1.92.15-3.75-.22-5.25-.42-1.67-1.21-2.97-2.32-3.63-.65-.38-1.39-.55-2.22-.46-1.17.13-2.25,1.33-2.42,2.68-.17,1.35.64,2.33,1.81,2.2.08,0,.15,0,.22.05.34.2.62.73.8,1.48.23.92.28,2.1.11,3.39-.18,1.41-.6,2.9-1.32,4.27-1.05.22-2.11.55-3.15.99-4.07,1.72-7.94,5.12-10.63,9.79-.32.55-.61,1.1-.88,1.67,6.22,1.24,10.25,2.33,13.7,4.2"/>
        <path class="cls-2" d="M254.61,265.84c-1.28,1.88-2.34,3.72-3.17,5.5,4.11,3.47,8.45,6.47,12.99,9.05,4.46,2.54,9.12,4.66,13.95,6.42,1.12-1.61,2.18-3.44,3.16-5.49-4.88-1.71-9.56-3.82-14.02-6.35-4.54-2.58-8.85-5.61-12.92-9.13"/>
        <path class="cls-2" d="M265.78,253.81c-1.68,1.43-3.22,2.84-4.62,4.24,3.62,3.11,7.45,5.79,11.48,8.08,3.94,2.24,8.07,4.1,12.37,5.61.51-1.92.97-3.96,1.36-6.12-3.69-1.36-7.23-2.98-10.63-4.91-3.48-1.98-6.81-4.27-9.97-6.9"/>
        <path class="cls-5" d="M290.42,240.14c20.59,9.29,27.16,23.13,26.68,35.33-.38,9.81-5.3,18.6-11.29,23.41-6.25,5.02-13.61,5.84-18.46-.65-5.43-7.26-7.49-24.24-.15-55.85l.78-3.34,2.44,1.1"/>
        <path class="cls-5" d="M290.42,240.14c20.59,9.29,27.16,23.13,26.68,35.33-.38,9.81-5.3,18.6-11.29,23.41-6.25,5.02-13.61,5.84-18.46-.65-5.43-7.26-7.49-24.24-.15-55.85l.78-3.34,2.44,1.1Z"/>
        <path class="cls-5" d="M285.86,237.51c-18.34-13.19-33.61-11.96-43.94-5.45-8.3,5.24-13.46,13.89-14.63,21.49-1.22,7.93,1.75,14.71,9.79,15.67,9,1.07,24.74-5.63,48.44-27.8l2.51-2.35-2.18-1.57"/>
        <path class="cls-5" d="M285.86,237.51c-18.34-13.19-33.61-11.96-43.94-5.45-8.3,5.24-13.46,13.89-14.63,21.49-1.22,7.93,1.75,14.71,9.79,15.67,9,1.07,24.74-5.63,48.44-27.8l2.51-2.35-2.18-1.57Z"/>
      </g>
      <g class="cls-1">
        <path class="cls-4" d="M13.12,239.95c-41.57,22.15-42.56,45.77-32.53,53.81l-3.17,5.48c-.72,1.24-.54,2.69.4,3.23s2.28-.03,3-1.27l3.17-5.48c11.98,4.67,31.94-8,30.34-55.08,3.33,2.06,6.28,5,10.46,9.76.36-.52.7-1.06,1.01-1.61,2.69-4.66,3.7-9.71,3.16-14.1-.21-1.72-.66-3.34-1.35-4.8.72-.94,1.56-1.76,2.44-2.42,1.04-.79,2.08-1.34,3-1.6.74-.21,1.33-.24,1.68-.04.07.04.12.1.15.17.47,1.08,1.73,1.29,2.81.46,1.08-.82,1.58-2.36,1.11-3.44-.33-.76-.85-1.32-1.5-1.69-1.12-.64-2.64-.67-4.3-.19-1.48.43-3.11,1.26-4.65,2.43-1.07.81-2.11,1.79-3.06,2.91-.73-.75-1.56-1.41-2.49-1.95-1.35-.78-2.81-1.25-4.33-1.44.59-1.53.97-3.08,1.16-4.56.24-1.92.15-3.75-.22-5.25-.42-1.67-1.21-2.97-2.32-3.63-.65-.38-1.39-.55-2.22-.46-1.17.13-2.25,1.33-2.42,2.68-.17,1.35.64,2.33,1.81,2.2.08,0,.15,0,.22.05.34.2.62.73.8,1.48.23.92.28,2.1.11,3.39-.18,1.41-.6,2.9-1.32,4.27-1.05.22-2.11.55-3.15.99-4.07,1.72-7.94,5.12-10.63,9.79-.32.55-.61,1.1-.88,1.67,6.22,1.24,10.25,2.33,13.7,4.2"/>
        <path class="cls-2" d="M-18.97,265.84c-1.28,1.88-2.34,3.72-3.17,5.5,4.11,3.47,8.45,6.47,12.99,9.05,4.46,2.54,9.12,4.66,13.95,6.42,1.12-1.61,2.18-3.44,3.16-5.49-4.88-1.71-9.56-3.82-14.02-6.35-4.54-2.58-8.85-5.61-12.92-9.13"/>
        <path class="cls-2" d="M-7.8,253.81c-1.68,1.43-3.22,2.84-4.62,4.24,3.62,3.11,7.45,5.79,11.48,8.08,3.94,2.24,8.07,4.1,12.37,5.61.51-1.92.97-3.96,1.36-6.12-3.69-1.36-7.23-2.98-10.63-4.91-3.48-1.98-6.81-4.27-9.97-6.9"/>
        <path class="cls-5" d="M16.84,240.15c20.59,9.29,27.16,23.13,26.68,35.33-.38,9.81-5.3,18.6-11.29,23.41-6.25,5.02-13.61,5.84-18.46-.65-5.43-7.26-7.49-24.24-.15-55.85l.78-3.34,2.44,1.1"/>
        <path class="cls-5" d="M16.84,240.15c20.59,9.29,27.16,23.13,26.68,35.33-.38,9.81-5.3,18.6-11.29,23.41-6.25,5.02-13.61,5.84-18.46-.65-5.43-7.26-7.49-24.24-.15-55.85l.78-3.34,2.44,1.1Z"/>
        <path class="cls-5" d="M12.28,237.51c-18.34-13.19-33.61-11.96-43.94-5.45-8.3,5.24-13.46,13.89-14.63,21.49-1.22,7.93,1.75,14.71,9.79,15.67,9,1.07,24.74-5.63,48.44-27.8l2.51-2.35-2.18-1.57"/>
        <path class="cls-5" d="M12.28,237.51c-18.34-13.19-33.61-11.96-43.94-5.45-8.3,5.24-13.46,13.89-14.63,21.49-1.22,7.93,1.75,14.71,9.79,15.67,9,1.07,24.74-5.63,48.44-27.8l2.51-2.35-2.18-1.57Z"/>
      </g>
    </g>
    <g>
      <g class="cls-1">
        <path class="cls-4" d="M1381.12-16.09c-41.57,22.15-42.56,45.77-32.53,53.81l-3.17,5.48c-.72,1.24-.54,2.69.4,3.23s2.28-.03,3-1.27l3.17-5.48c11.98,4.67,31.94-8,30.34-55.08,3.33,2.06,6.28,5,10.46,9.76.36-.52.7-1.06,1.01-1.61,2.69-4.66,3.7-9.71,3.16-14.1-.21-1.72-.66-3.34-1.35-4.8.72-.94,1.56-1.76,2.44-2.42,1.04-.79,2.08-1.34,3-1.6.74-.21,1.33-.24,1.68-.04.07.04.12.1.15.17.47,1.08,1.73,1.29,2.81.46,1.08-.82,1.58-2.36,1.11-3.44-.33-.76-.85-1.32-1.5-1.69-1.12-.64-2.64-.67-4.3-.19-1.48.43-3.11,1.26-4.65,2.43-1.07.81-2.11,1.79-3.06,2.91-.73-.75-1.56-1.41-2.49-1.95-1.35-.78-2.81-1.25-4.33-1.44.59-1.53.97-3.08,1.16-4.56.24-1.92.15-3.75-.22-5.25-.42-1.67-1.21-2.97-2.32-3.63-.65-.38-1.39-.55-2.22-.46-1.17.13-2.25,1.33-2.42,2.68-.17,1.35.64,2.33,1.81,2.2.08,0,.15,0,.22.05.34.2.62.73.8,1.48.23.92.28,2.1.11,3.39-.18,1.41-.6,2.9-1.32,4.27-1.05.22-2.11.55-3.15.99-4.07,1.72-7.94,5.12-10.63,9.79-.32.55-.61,1.1-.88,1.67,6.22,1.24,10.25,2.33,13.7,4.2"/>
        <path class="cls-2" d="M1349.03,9.8c-1.28,1.88-2.34,3.72-3.17,5.5,4.11,3.47,8.45,6.47,12.99,9.05,4.46,2.54,9.12,4.66,13.95,6.42,1.12-1.61,2.18-3.44,3.16-5.49-4.88-1.71-9.56-3.82-14.02-6.35-4.54-2.58-8.85-5.61-12.92-9.13"/>
        <path class="cls-2" d="M1360.2-2.24c-1.68,1.43-3.22,2.84-4.62,4.24,3.62,3.11,7.45,5.79,11.48,8.08,3.94,2.24,8.07,4.1,12.37,5.61.51-1.92.97-3.96,1.36-6.12-3.69-1.36-7.23-2.98-10.63-4.91-3.48-1.98-6.81-4.27-9.97-6.9"/>
        <path class="cls-5" d="M1380.28-18.53c-18.34-13.19-33.61-11.96-43.94-5.45-8.3,5.24-13.46,13.89-14.63,21.49-1.22,7.93,1.75,14.71,9.79,15.67,9,1.07,24.74-5.63,48.44-27.8l2.51-2.35-2.18-1.57"/>
        <path class="cls-5" d="M1380.28-18.53c-18.34-13.19-33.61-11.96-43.94-5.45-8.3,5.24-13.46,13.89-14.63,21.49-1.22,7.93,1.75,14.71,9.79,15.67,9,1.07,24.74-5.63,48.44-27.8l2.51-2.35-2.18-1.57Z"/>
      </g>
      <g class="cls-1">
        <path class="cls-4" d="M1107.54-16.09c-41.57,22.15-42.56,45.77-32.53,53.81l-3.17,5.48c-.72,1.24-.54,2.69.4,3.23s2.28-.03,3-1.27l3.17-5.48c11.98,4.67,31.94-8,30.34-55.08,3.33,2.06,6.28,5,10.46,9.76.36-.52.7-1.06,1.01-1.61,2.69-4.66,3.7-9.71,3.16-14.1-.21-1.72-.66-3.34-1.35-4.8.72-.94,1.56-1.76,2.44-2.42,1.04-.79,2.08-1.34,3-1.6.74-.21,1.33-.24,1.68-.04.07.04.12.1.15.17.47,1.08,1.73,1.29,2.81.46,1.08-.82,1.58-2.36,1.11-3.44-.33-.76-.85-1.32-1.5-1.69-1.12-.64-2.64-.67-4.3-.19-1.48.43-3.11,1.26-4.65,2.43-1.07.81-2.11,1.79-3.06,2.91-.73-.75-1.56-1.41-2.49-1.95-1.35-.78-2.81-1.25-4.33-1.44.59-1.53.97-3.08,1.16-4.56.24-1.92.15-3.75-.22-5.25-.42-1.67-1.21-2.97-2.32-3.63-.65-.38-1.39-.55-2.22-.46-1.17.13-2.25,1.33-2.42,2.68-.17,1.35.64,2.33,1.81,2.2.08,0,.15,0,.22.05.34.2.62.73.8,1.48.23.92.28,2.1.11,3.39-.18,1.41-.6,2.9-1.32,4.27-1.05.22-2.11.55-3.15.99-4.07,1.72-7.94,5.12-10.63,9.79-.32.55-.61,1.1-.88,1.67,6.22,1.24,10.25,2.33,13.7,4.2"/>
        <path class="cls-2" d="M1075.46,9.8c-1.28,1.88-2.34,3.72-3.17,5.5,4.11,3.47,8.45,6.47,12.99,9.05,4.46,2.54,9.12,4.66,13.95,6.42,1.12-1.61,2.18-3.44,3.16-5.49-4.88-1.71-9.56-3.82-14.02-6.35-4.54-2.58-8.85-5.61-12.92-9.13"/>
        <path class="cls-2" d="M1086.63-2.23c-1.68,1.43-3.22,2.84-4.62,4.24,3.62,3.11,7.45,5.79,11.48,8.08,3.94,2.24,8.07,4.1,12.37,5.61.51-1.92.97-3.96,1.36-6.12-3.69-1.36-7.23-2.98-10.63-4.91-3.48-1.98-6.81-4.27-9.97-6.9"/>
        <path class="cls-5" d="M1111.26-15.9c20.59,9.29,27.16,23.13,26.68,35.33-.38,9.81-5.3,18.6-11.29,23.41-6.25,5.02-13.61,5.84-18.46-.65-5.43-7.26-7.49-24.24-.15-55.85l.78-3.34,2.44,1.1"/>
        <path class="cls-5" d="M1111.26-15.9c20.59,9.29,27.16,23.13,26.68,35.33-.38,9.81-5.3,18.6-11.29,23.41-6.25,5.02-13.61,5.84-18.46-.65-5.43-7.26-7.49-24.24-.15-55.85l.78-3.34,2.44,1.1Z"/>
        <path class="cls-5" d="M1106.71-18.53c-18.34-13.19-33.61-11.96-43.94-5.45-8.3,5.24-13.46,13.89-14.63,21.49-1.22,7.93,1.75,14.71,9.79,15.67,9,1.07,24.74-5.63,48.44-27.8l2.51-2.35-2.18-1.57"/>
        <path class="cls-5" d="M1106.71-18.53c-18.34-13.19-33.61-11.96-43.94-5.45-8.3,5.24-13.46,13.89-14.63,21.49-1.22,7.93,1.75,14.71,9.79,15.67,9,1.07,24.74-5.63,48.44-27.8l2.51-2.35-2.18-1.57Z"/>
      </g>
      <g class="cls-1">
        <path class="cls-4" d="M833.89-16.09c-41.57,22.15-42.56,45.77-32.53,53.81l-3.17,5.48c-.72,1.24-.54,2.69.4,3.23s2.28-.03,3-1.27l3.17-5.48c11.98,4.67,31.94-8,30.34-55.08,3.33,2.06,6.28,5,10.46,9.76.36-.52.7-1.06,1.01-1.61,2.69-4.66,3.7-9.71,3.16-14.1-.21-1.72-.66-3.34-1.35-4.8.72-.94,1.56-1.76,2.44-2.42,1.04-.79,2.08-1.34,3-1.6.74-.21,1.33-.24,1.68-.04.07.04.12.1.15.17.47,1.08,1.73,1.29,2.81.46,1.08-.82,1.58-2.36,1.11-3.44-.33-.76-.85-1.32-1.5-1.69-1.12-.64-2.64-.67-4.3-.19-1.48.43-3.11,1.26-4.65,2.43-1.07.81-2.11,1.79-3.06,2.91-.73-.75-1.56-1.41-2.49-1.95-1.35-.78-2.81-1.25-4.33-1.44.59-1.53.97-3.08,1.16-4.56.24-1.92.15-3.75-.22-5.25-.42-1.67-1.21-2.97-2.32-3.63-.65-.38-1.39-.55-2.22-.46-1.17.13-2.25,1.33-2.42,2.68-.17,1.35.64,2.33,1.81,2.2.08,0,.15,0,.22.05.34.2.62.73.8,1.48.23.92.28,2.1.11,3.39-.18,1.41-.6,2.9-1.32,4.27-1.05.22-2.11.55-3.15.99-4.07,1.72-7.94,5.12-10.63,9.79-.32.55-.61,1.1-.88,1.67,6.22,1.24,10.25,2.33,13.7,4.2"/>
        <path class="cls-2" d="M801.81,9.8c-1.28,1.88-2.34,3.72-3.17,5.5,4.11,3.47,8.45,6.47,12.99,9.05,4.46,2.54,9.12,4.66,13.95,6.42,1.12-1.61,2.18-3.44,3.16-5.49-4.88-1.71-9.56-3.82-14.02-6.35-4.54-2.58-8.85-5.61-12.92-9.13"/>
        <path class="cls-2" d="M812.98-2.23c-1.68,1.43-3.22,2.84-4.62,4.24,3.62,3.11,7.45,5.79,11.48,8.08,3.94,2.24,8.07,4.1,12.37,5.61.51-1.92.97-3.96,1.36-6.12-3.69-1.36-7.23-2.98-10.63-4.91-3.48-1.98-6.81-4.27-9.97-6.9"/>
        <path class="cls-5" d="M837.62-15.9c20.59,9.29,27.16,23.13,26.68,35.33-.38,9.81-5.3,18.6-11.29,23.41-6.25,5.02-13.61,5.84-18.46-.65-5.43-7.26-7.49-24.24-.15-55.85l.78-3.34,2.44,1.1"/>
        <path class="cls-5" d="M837.62-15.9c20.59,9.29,27.16,23.13,26.68,35.33-.38,9.81-5.3,18.6-11.29,23.41-6.25,5.02-13.61,5.84-18.46-.65-5.43-7.26-7.49-24.24-.15-55.85l.78-3.34,2.44,1.1Z"/>
        <path class="cls-5" d="M833.06-18.53c-18.34-13.19-33.61-11.96-43.94-5.45-8.3,5.24-13.46,13.89-14.63,21.49-1.22,7.93,1.75,14.71,9.79,15.67,9,1.07,24.74-5.63,48.44-27.8l2.51-2.35-2.18-1.57"/>
        <path class="cls-5" d="M833.06-18.53c-18.34-13.19-33.61-11.96-43.94-5.45-8.3,5.24-13.46,13.89-14.63,21.49-1.22,7.93,1.75,14.71,9.79,15.67,9,1.07,24.74-5.63,48.44-27.8l2.51-2.35-2.18-1.57Z"/>
      </g>
      <g class="cls-1">
        <path class="cls-4" d="M560.34-16.09c-41.57,22.15-42.56,45.77-32.53,53.81l-3.17,5.48c-.72,1.24-.54,2.69.4,3.23s2.28-.03,3-1.27l3.17-5.48c11.98,4.67,31.94-8,30.34-55.08,3.33,2.06,6.28,5,10.46,9.76.36-.52.7-1.06,1.01-1.61,2.69-4.66,3.7-9.71,3.16-14.1-.21-1.72-.66-3.34-1.35-4.8.72-.94,1.56-1.76,2.44-2.42,1.04-.79,2.08-1.34,3-1.6.74-.21,1.33-.24,1.68-.04.07.04.12.1.15.17.47,1.08,1.73,1.29,2.81.46,1.08-.82,1.58-2.36,1.11-3.44-.33-.76-.85-1.32-1.5-1.69-1.12-.64-2.64-.67-4.3-.19-1.48.43-3.11,1.26-4.65,2.43-1.07.81-2.11,1.79-3.06,2.91-.73-.75-1.56-1.41-2.49-1.95-1.35-.78-2.81-1.25-4.33-1.44.59-1.53.97-3.08,1.16-4.56.24-1.92.15-3.75-.22-5.25-.42-1.67-1.21-2.97-2.32-3.63-.65-.38-1.39-.55-2.22-.46-1.17.13-2.25,1.33-2.42,2.68-.17,1.35.64,2.33,1.81,2.2.08,0,.15,0,.22.05.34.2.62.73.8,1.48.23.92.28,2.1.11,3.39-.18,1.41-.6,2.9-1.32,4.27-1.05.22-2.11.55-3.15.99-4.07,1.72-7.94,5.12-10.63,9.79-.32.55-.61,1.1-.88,1.67,6.22,1.24,10.25,2.33,13.7,4.2"/>
        <path class="cls-2" d="M528.26,9.8c-1.28,1.88-2.34,3.72-3.17,5.5,4.11,3.47,8.45,6.47,12.99,9.05,4.46,2.54,9.12,4.66,13.95,6.42,1.12-1.61,2.18-3.44,3.16-5.49-4.88-1.71-9.56-3.82-14.02-6.35-4.54-2.58-8.85-5.61-12.92-9.13"/>
        <path class="cls-2" d="M539.43-2.23c-1.68,1.43-3.22,2.84-4.62,4.24,3.62,3.11,7.45,5.79,11.48,8.08,3.94,2.24,8.07,4.1,12.37,5.61.51-1.92.97-3.96,1.36-6.12-3.69-1.36-7.23-2.98-10.63-4.91-3.48-1.98-6.81-4.27-9.97-6.9"/>
        <path class="cls-5" d="M564.06-15.9c20.59,9.29,27.16,23.13,26.68,35.33-.38,9.81-5.3,18.6-11.29,23.41-6.25,5.02-13.61,5.84-18.46-.65-5.43-7.26-7.49-24.24-.15-55.85l.78-3.34,2.44,1.1"/>
        <path class="cls-5" d="M564.06-15.9c20.59,9.29,27.16,23.13,26.68,35.33-.38,9.81-5.3,18.6-11.29,23.41-6.25,5.02-13.61,5.84-18.46-.65-5.43-7.26-7.49-24.24-.15-55.85l.78-3.34,2.44,1.1Z"/>
        <path class="cls-5" d="M559.51-18.53c-18.34-13.19-33.61-11.96-43.94-5.45-8.3,5.24-13.46,13.89-14.63,21.49-1.22,7.93,1.75,14.71,9.79,15.67,9,1.07,24.74-5.63,48.44-27.8l2.51-2.35-2.18-1.57"/>
        <path class="cls-5" d="M559.51-18.53c-18.34-13.19-33.61-11.96-43.94-5.45-8.3,5.24-13.46,13.89-14.63,21.49-1.22,7.93,1.75,14.71,9.79,15.67,9,1.07,24.74-5.63,48.44-27.8l2.51-2.35-2.18-1.57Z"/>
      </g>
      <g class="cls-1">
        <path class="cls-4" d="M286.69-16.09c-41.57,22.15-42.56,45.77-32.53,53.81l-3.17,5.48c-.72,1.24-.54,2.69.4,3.23s2.28-.03,3-1.27l3.17-5.48c11.98,4.67,31.94-8,30.34-55.08,3.33,2.06,6.28,5,10.46,9.76.36-.52.7-1.06,1.01-1.61,2.69-4.66,3.7-9.71,3.16-14.1-.21-1.72-.66-3.34-1.35-4.8.72-.94,1.56-1.76,2.44-2.42,1.04-.79,2.08-1.34,3-1.6.74-.21,1.33-.24,1.68-.04.07.04.12.1.15.17.47,1.08,1.73,1.29,2.81.46,1.08-.82,1.58-2.36,1.11-3.44-.33-.76-.85-1.32-1.5-1.69-1.12-.64-2.64-.67-4.3-.19-1.48.43-3.11,1.26-4.65,2.43-1.07.81-2.11,1.79-3.06,2.91-.73-.75-1.56-1.41-2.49-1.95-1.35-.78-2.81-1.25-4.33-1.44.59-1.53.97-3.08,1.16-4.56.24-1.92.15-3.75-.22-5.25-.42-1.67-1.21-2.97-2.32-3.63-.65-.38-1.39-.55-2.22-.46-1.17.13-2.25,1.33-2.42,2.68-.17,1.35.64,2.33,1.81,2.2.08,0,.15,0,.22.05.34.2.62.73.8,1.48.23.92.28,2.1.11,3.39-.18,1.41-.6,2.9-1.32,4.27-1.05.22-2.11.55-3.15.99-4.07,1.72-7.94,5.12-10.63,9.79-.32.55-.61,1.1-.88,1.67,6.22,1.24,10.25,2.33,13.7,4.2"/>
        <path class="cls-2" d="M254.61,9.8c-1.28,1.88-2.34,3.72-3.17,5.5,4.11,3.47,8.45,6.47,12.99,9.05,4.46,2.54,9.12,4.66,13.95,6.42,1.12-1.61,2.18-3.44,3.16-5.49-4.88-1.71-9.56-3.82-14.02-6.35-4.54-2.58-8.85-5.61-12.92-9.13"/>
        <path class="cls-2" d="M265.78-2.23c-1.68,1.43-3.22,2.84-4.62,4.24,3.62,3.11,7.45,5.79,11.48,8.08,3.94,2.24,8.07,4.1,12.37,5.61.51-1.92.97-3.96,1.36-6.12-3.69-1.36-7.23-2.98-10.63-4.91-3.48-1.98-6.81-4.27-9.97-6.9"/>
        <path class="cls-5" d="M290.42-15.9c20.59,9.29,27.16,23.13,26.68,35.33-.38,9.81-5.3,18.6-11.29,23.41-6.25,5.02-13.61,5.84-18.46-.65-5.43-7.26-7.49-24.24-.15-55.85l.78-3.34,2.44,1.1"/>
        <path class="cls-5" d="M290.42-15.9c20.59,9.29,27.16,23.13,26.68,35.33-.38,9.81-5.3,18.6-11.29,23.41-6.25,5.02-13.61,5.84-18.46-.65-5.43-7.26-7.49-24.24-.15-55.85l.78-3.34,2.44,1.1Z"/>
        <path class="cls-5" d="M285.86-18.53c-18.34-13.19-33.61-11.96-43.94-5.45-8.3,5.24-13.46,13.89-14.63,21.49-1.22,7.93,1.75,14.71,9.79,15.67,9,1.07,24.74-5.63,48.44-27.8l2.51-2.35-2.18-1.57"/>
        <path class="cls-5" d="M285.86-18.53c-18.34-13.19-33.61-11.96-43.94-5.45-8.3,5.24-13.46,13.89-14.63,21.49-1.22,7.93,1.75,14.71,9.79,15.67,9,1.07,24.74-5.63,48.44-27.8l2.51-2.35-2.18-1.57Z"/>
      </g>
      <g class="cls-1">
        <path class="cls-4" d="M13.12-16.09C-28.46,6.06-29.44,29.68-19.41,37.72l-3.17,5.48c-.72,1.24-.54,2.69.4,3.23s2.28-.03,3-1.27l3.17-5.48c11.98,4.67,31.94-8,30.34-55.08,3.33,2.06,6.28,5,10.46,9.76.36-.52.7-1.06,1.01-1.61,2.69-4.66,3.7-9.71,3.16-14.1-.21-1.72-.66-3.34-1.35-4.8.72-.94,1.56-1.76,2.44-2.42,1.04-.79,2.08-1.34,3-1.6.74-.21,1.33-.24,1.68-.04.07.04.12.1.15.17.47,1.08,1.73,1.29,2.81.46,1.08-.82,1.58-2.36,1.11-3.44-.33-.76-.85-1.32-1.5-1.69-1.12-.64-2.64-.67-4.3-.19-1.48.43-3.11,1.26-4.65,2.43-1.07.81-2.11,1.79-3.06,2.91-.73-.75-1.56-1.41-2.49-1.95-1.35-.78-2.81-1.25-4.33-1.44.59-1.53.97-3.08,1.16-4.56.24-1.92.15-3.75-.22-5.25-.42-1.67-1.21-2.97-2.32-3.63-.65-.38-1.39-.55-2.22-.46-1.17.13-2.25,1.33-2.42,2.68-.17,1.35.64,2.33,1.81,2.2.08,0,.15,0,.22.05.34.2.62.73.8,1.48.23.92.28,2.1.11,3.39-.18,1.41-.6,2.9-1.32,4.27-1.05.22-2.11.55-3.15.99-4.07,1.72-7.94,5.12-10.63,9.79-.32.55-.61,1.1-.88,1.67,6.22,1.24,10.25,2.33,13.7,4.2"/>
        <path class="cls-2" d="M-18.97,9.8c-1.28,1.88-2.34,3.72-3.17,5.5,4.11,3.47,8.45,6.47,12.99,9.05C-4.68,26.88-.02,29.01,4.81,30.77c1.12-1.61,2.18-3.44,3.16-5.49-4.88-1.71-9.56-3.82-14.02-6.35-4.54-2.58-8.85-5.61-12.92-9.13"/>
        <path class="cls-2" d="M-7.8-2.23c-1.68,1.43-3.22,2.84-4.62,4.24C-8.8,5.12-4.96,7.8-.93,10.09c3.94,2.24,8.07,4.1,12.37,5.61.51-1.92.97-3.96,1.36-6.12-3.69-1.36-7.23-2.98-10.63-4.91C-1.31,2.69-4.64.4-7.8-2.23"/>
        <path class="cls-5" d="M16.84-15.9C37.43-6.61,44,7.23,43.53,19.43c-.38,9.81-5.3,18.6-11.29,23.41-6.25,5.02-13.61,5.84-18.46-.65-5.43-7.26-7.49-24.24-.15-55.85l.78-3.34,2.44,1.1"/>
        <path class="cls-5" d="M16.84-15.9C37.43-6.61,44,7.23,43.53,19.43c-.38,9.81-5.3,18.6-11.29,23.41-6.25,5.02-13.61,5.84-18.46-.65-5.43-7.26-7.49-24.24-.15-55.85l.78-3.34,2.44,1.1Z"/>
        <path class="cls-5" d="M12.28-18.53c-18.34-13.19-33.61-11.96-43.94-5.45-8.3,5.24-13.46,13.89-14.63,21.49-1.22,7.93,1.75,14.71,9.79,15.67,9,1.07,24.74-5.63,48.44-27.8l2.51-2.35-2.18-1.57"/>
        <path class="cls-5" d="M12.28-18.53c-18.34-13.19-33.61-11.96-43.94-5.45-8.3,5.24-13.46,13.89-14.63,21.49-1.22,7.93,1.75,14.71,9.79,15.67,9,1.07,24.74-5.63,48.44-27.8l2.51-2.35-2.18-1.57Z"/>
      </g>
    </g>
  </g>
</svg>
