<?xml version="1.0" encoding="UTF-8"?>
<svg id="Layer_1" data-name="Layer 1" xmlns="http://www.w3.org/2000/svg" xmlns:xlink="http://www.w3.org/1999/xlink" viewBox="0 0 103.13 126.7">
  <defs>
    <style>
      .cls-1 {
        fill: #fff;
      }

      .cls-2 {
        fill: url(#radial-gradient);
      }
    </style>
    <radialGradient id="radial-gradient" cx="21.32" cy="37.3" fx="21.32" fy="37.3" r="89.99" gradientTransform="translate(6.65 -13.27) rotate(119.42) scale(1 -1)" gradientUnits="userSpaceOnUse">
      <stop offset="0" stop-color="#fbb03b"/>
      <stop offset=".53" stop-color="#f9ae3b"/>
      <stop offset=".71" stop-color="#f2a93b"/>
      <stop offset=".85" stop-color="#e69f3c"/>
      <stop offset=".96" stop-color="#d5923d"/>
      <stop offset="1" stop-color="#cd8c3e"/>
    </radialGradient>
  </defs>
  <path class="cls-2" d="M12.95.07c2.56,1.03,3.23,4.57,4.42,6.85,5.63,12.98,14.19,24.16,27.86,26.84,22.08,4.12,47.96,11.83,55.75,35.66,3.02,9.04,2.88,18.89-.38,27.73-6.55,19.31-28.05,33.88-48.37,28.38-14.84-3.87-26.5-15.72-34.95-28.15C-1.28,70.81-6.16,33.13,8.9,3.46,9.6,1.98,11.17-.31,12.8.04l.15.03Z"/>
  <path class="cls-1" d="M89.04,94.24c-1.94.21-6.64,5.13-11.24,7.62-12.49,6.78-16.57,6.19-30.67,3.67-3.99-.71-17.53-6.85-15.02-3.37,9.04,12.63,28.04,22.75,42.89,14.06,4.39-2.4,8.53-6.43,11.19-10.61,1.07-1.69,7.05-11.87,2.93-11.38h-.09Z"/>
</svg>