<?xml version="1.0" encoding="UTF-8"?>
<svg id="Layer_1" data-name="Layer 1" xmlns="http://www.w3.org/2000/svg" viewBox="0 0 85.75 127.88">
  <defs>
    <style>
      .cls-1 {
        fill: #b02e0c;
      }

      .cls-2 {
        fill: #f9ffd6;
        stroke: #000;
        stroke-miterlimit: 10;
        stroke-width: .75px;
      }
    </style>
  </defs>
  <g>
    <g>
      <path class="cls-1" d="M6.88,127.38c-1.93,0-3.5-1.57-3.5-3.5v-55.5h79v55.5c0,1.93-1.57,3.5-3.5,3.5H6.88Z"/>
      <path d="M81.88,68.88v55c0,1.65-1.35,3-3,3H6.88c-1.65,0-3-1.35-3-3v-55h78M82.88,67.88H2.88v56c0,2.21,1.79,4,4,4h72c2.21,0,4-1.79,4-4v-56h0Z"/>
    </g>
    <g>
      <rect class="cls-1" x="3.38" y="9.38" width="79" height="59"/>
      <path d="M81.88,9.88v58H3.88V9.88h78M82.88,8.88H2.88v60h80V8.88h0Z"/>
    </g>
  </g>
  <path class="cls-2" d="M24.37,17.38h36c1.1,0,2,.9,2,2h0c0,4.42-3.58,8-8,8h-24c-4.42,0-8-3.58-8-8h0c0-1.1.9-2,2-2Z"/>
  <path class="cls-2" d="M24.37,77.38h36c1.1,0,2,.9,2,2h0c0,4.42-3.58,8-8,8h-24c-4.42,0-8-3.58-8-8h0c0-1.1.9-2,2-2Z"/>
  <path class="cls-2" d="M9.38,118.37h68c.55,0,1,.45,1,1h0c0,2.21-1.79,4-4,4H12.37c-2.21,0-4-1.79-4-4h0c0-.55.45-1,1-1Z" transform="translate(86.75 241.75) rotate(180)"/>
  <path class="cls-2" d="M4.38.38h77c2.21,0,4,1.79,4,4v3c0,1.1-.9,2-2,2H2.37c-1.1,0-2-.9-2-2v-3C.38,2.17,2.17.38,4.38.38Z"/>
</svg>