<?xml version="1.0" encoding="UTF-8"?>
<svg id="Layer_1" data-name="Layer 1" xmlns="http://www.w3.org/2000/svg" viewBox="0 0 97.38 135.5">
  <defs>
    <style>
      .cls-1 {
        fill: #b02e0c;
      }

      .cls-2 {
        fill: #f9ffd6;
        stroke: #000;
        stroke-miterlimit: 10;
        stroke-width: .75px;
      }
    </style>
  </defs>
  <g>
    <g>
      <path class="cls-1" d="M18.5,135c-1.93,0-3.5-1.57-3.5-3.5v-55.5h79v55.5c0,1.93-1.57,3.5-3.5,3.5H18.5Z"/>
      <path d="M93.5,76.5v55c0,1.65-1.35,3-3,3H18.5c-1.65,0-3-1.35-3-3v-55h78M94.5,75.5H14.5v56c0,2.21,1.79,4,4,4h72c2.21,0,4-1.79,4-4v-56h0Z"/>
    </g>
    <g>
      <rect class="cls-1" x="15" y="17" width="79" height="59"/>
      <path d="M93.5,17.5v58H15.5V17.5h78M94.5,16.5H14.5v60h80V16.5h0Z"/>
    </g>
  </g>
  <path class="cls-2" d="M36,25h36c1.1,0,2,.9,2,2h0c0,4.42-3.58,8-8,8h-24c-4.42,0-8-3.58-8-8h0c0-1.1.9-2,2-2Z"/>
  <path class="cls-2" d="M36,85h36c1.1,0,2,.9,2,2h0c0,4.42-3.58,8-8,8h-24c-4.42,0-8-3.58-8-8h0c0-1.1.9-2,2-2Z"/>
  <path class="cls-2" d="M21,126h68c.55,0,1,.45,1,1h0c0,2.21-1.79,4-4,4H24c-2.21,0-4-1.79-4-4h0c0-.55.45-1,1-1Z" transform="translate(110 257) rotate(180)"/>
  <path class="cls-2" d="M16,8h77c2.21,0,4,1.79,4,4v3c0,1.1-.9,2-2,2H14c-1.1,0-2-.9-2-2v-3c0-2.21,1.79-4,4-4Z"/>
</svg>